<svg width="80" height="80" viewBox="0 0 80 80" fill="none" xmlns="http://www.w3.org/2000/svg">
<path d="M67 7H13.6667C10 7 7 10 7 13.6667V40.3333C7 44 10 47 13.6667 47H27V40.3333H13.6667V13.6667H67V40.3333H60.3333V47H67C70.6667 47 73.6667 44 73.6667 40.3333V13.6667C73.6667 10 70.6667 7 67 7Z" fill="#3865AB"/>
<path d="M67 68.6667C67 71.3333 64.6667 73.6667 62 73.6667H43.6667C42.3333 73.6667 41.3333 73.3333 40.3333 72.3333L27 58.3333L29.3333 55.6667C30 55 31 54.6667 32 54.6667H32.6667L40.3333 60.3333V30.3333C40.3333 28.3333 41.6667 27 43.6667 27C45.6667 27 47 28.3333 47 30.3333V45.3333L51 45.6667L64 53C65.6667 53.6667 67 55.6667 67 57.3333V68.6667Z" fill="#84AFF1"/>
</svg>
